<?xml version="1.0" encoding="iso-8859-1"?>
<!-- Generator: Adobe Illustrator 16.0.0, SVG Export Plug-In . SVG Version: 6.00 Build 0)  -->
<!DOCTYPE svg PUBLIC "-//W3C//DTD SVG 1.1//EN" "http://www.w3.org/Graphics/SVG/1.1/DTD/svg11.dtd">
<svg xmlns="http://www.w3.org/2000/svg" xmlns:xlink="http://www.w3.org/1999/xlink" version="1.1" id="Capa_1" x="0px" y="0px" width="512px" height="512px" viewBox="0 0 32.027 32.027" style="enable-background:new 0 0 32.027 32.027;" xml:space="preserve">
<g>
	<g id="Arrow_x5F_Right_x5F_1">
		<g>
			<path d="M24.55,12.492L12.831,1.16C12.087,0.416,11.083,0,10.015,0C8.946,0,7.942,0.416,7.187,1.172     C6.431,1.928,6.015,2.932,6.015,4s0.416,2.073,1.172,2.828l8.536,8.494c0.188,0.188,0.291,0.438,0.291,0.705     c0,0.267-0.104,0.518-0.293,0.707l-8.531,8.461c-0.759,0.76-1.175,1.765-1.175,2.832s0.416,2.072,1.172,2.828     c0.755,0.756,1.76,1.172,2.828,1.172s2.073-0.416,2.829-1.172l1.606-1.606l10.084-9.671c0.959-0.959,1.479-2.215,1.479-3.551     C26.013,14.691,25.493,13.436,24.55,12.492z M23.136,18.148L11.43,29.441c-0.756,0.756-2.073,0.756-2.829,0     c-0.378-0.379-0.586-0.879-0.586-1.414c0-0.533,0.208-1.036,0.586-1.414l8.531-8.463c0.568-0.568,0.882-1.322,0.882-2.123     c0-0.802-0.312-1.555-0.879-2.121L8.599,5.412C8.223,5.036,8.015,4.534,8.015,4s0.208-1.036,0.586-1.414S9.48,2,10.015,2     s1.036,0.208,1.414,0.586l11.718,11.332c0.556,0.555,0.867,1.308,0.867,2.109C24.014,16.828,23.702,17.582,23.136,18.148z" fill="#FFFFFF"/>
		</g>
	</g>
</g>
<g>
</g>
<g>
</g>
<g>
</g>
<g>
</g>
<g>
</g>
<g>
</g>
<g>
</g>
<g>
</g>
<g>
</g>
<g>
</g>
<g>
</g>
<g>
</g>
<g>
</g>
<g>
</g>
<g>
</g>
</svg>
