<?xml version="1.0" encoding="iso-8859-1"?>
<!-- Generator: Adobe Illustrator 18.1.1, SVG Export Plug-In . SVG Version: 6.00 Build 0)  -->
<svg xmlns="http://www.w3.org/2000/svg" xmlns:xlink="http://www.w3.org/1999/xlink" version="1.1" id="Capa_1" x="0px" y="0px" viewBox="0 0 31.968 31.968" style="enable-background:new 0 0 31.968 31.968;" xml:space="preserve" width="512px" height="512px">
<path d="M22.311,31.968c-0.894,0-1.734-0.348-2.365-0.98L7.292,18.332C6.66,17.7,6.312,16.86,6.312,15.967s0.348-1.733,0.979-2.365  L19.947,0.948c1.263-1.264,3.467-1.264,4.729,0c1.304,1.304,1.304,3.425,0,4.729L14.385,15.967l10.291,10.292  c0.632,0.632,0.979,1.472,0.979,2.365c0,0.894-0.348,1.733-0.98,2.365C24.045,31.62,23.205,31.968,22.311,31.968z M22.311,1.968  c-0.359,0-0.697,0.14-0.951,0.394L8.706,15.016c-0.254,0.254-0.394,0.592-0.394,0.951s0.14,0.697,0.394,0.951l12.655,12.657  c0.508,0.508,1.394,0.507,1.9,0c0.255-0.254,0.395-0.592,0.395-0.951c0-0.359-0.14-0.697-0.394-0.951L11.557,15.967L23.262,4.263  c0.524-0.524,0.524-1.377,0-1.901C23.008,2.108,22.67,1.968,22.311,1.968z" fill="#FFFFFF"/>
<g>
</g>
<g>
</g>
<g>
</g>
<g>
</g>
<g>
</g>
<g>
</g>
<g>
</g>
<g>
</g>
<g>
</g>
<g>
</g>
<g>
</g>
<g>
</g>
<g>
</g>
<g>
</g>
<g>
</g>
</svg>
